<?xml version="1.0" encoding="utf-8"?>
<!-- Generator: Adobe Illustrator 24.2.1, SVG Export Plug-In . SVG Version: 6.00 Build 0)  -->
<svg version="1.1" id="Layer_1" xmlns="http://www.w3.org/2000/svg" xmlns:xlink="http://www.w3.org/1999/xlink" x="0px" y="0px"
	 viewBox="0 0 32 32" style="enable-background:new 0 0 32 32;" xml:space="preserve">
<style type="text/css">
	.st0{display:none;}
	.st1{display:inline;}
	.st2{fill:url(#SVGID_1_);stroke:#000000;stroke-width:0.8;stroke-miterlimit:10;}
	.st3{stroke:#000000;stroke-width:0.5;stroke-miterlimit:10;}
	.st4{stroke:#000000;stroke-width:0.25;stroke-miterlimit:10;}
</style>
<g id="user_people_person_users_man" class="st0">
	<path class="st1" d="M23.7,16.2c-0.4-0.4-1-0.4-1.4,0s-0.4,1,0,1.4c1.7,1.7,2.7,4,2.7,6.4c0,1.2-3.5,3-9,3s-9-1.8-9-3
		c0-2.4,0.9-4.7,2.6-6.4c0.4-0.4,0.4-1,0-1.4s-1-0.4-1.4,0C6.1,18.3,5,21.1,5,24c0,3.3,5.7,5,11,5s11-1.8,11-5
		C27,21.1,25.8,18.2,23.7,16.2z"/>
	<path class="st1" d="M16,17c3.9,0,7-3.1,7-7s-3.1-7-7-7s-7,3.1-7,7S12.1,17,16,17z M16,5c2.8,0,5,2.2,5,5s-2.2,5-5,5s-5-2.2-5-5
		S13.2,5,16,5z"/>
</g>
<g>
	<linearGradient id="SVGID_1_" gradientUnits="userSpaceOnUse" x1="6.6" y1="15.9625" x2="25.3017" y2="15.9625">
		<stop  offset="0" style="stop-color:#FFFFFF"/>
		<stop  offset="1" style="stop-color:#000000"/>
	</linearGradient>
	<path class="st2" d="M6.6,12.3c0-5.2,4.2-9.4,9.4-9.4s9.4,4.2,9.3,9.4c0,2.2-0.7,4.3-1.7,6.2c-1.5,3-3.5,5.6-5.6,8.2
		c-0.6,0.7-1.1,1.4-1.7,2.1c-0.3,0.3-0.5,0.3-0.8,0C12.8,25.4,10,22,8,18C7.2,16.2,6.6,14.3,6.6,12.3z M16,28.1c0.8-1,1.6-2,2.3-2.9
		c1.8-2.4,3.6-4.8,4.9-7.6c0.9-1.9,1.5-4,1.3-6.2c-0.4-4.6-4.4-8-9-7.8c-4.5,0.2-8.2,4-8.2,8.6c0,2.1,0.7,4,1.6,5.8
		C10.8,21.7,13.4,24.9,16,28.1z"/>
	<path class="st3" d="M16,5.6c3.7,0,6.7,3.1,6.7,6.8s-3.1,6.7-6.8,6.7S9.2,16,9.2,12.3C9.3,8.5,12.3,5.5,16,5.6z M22,12.3
		c0-3.3-2.7-6-6-6.1c-3.3,0-6,2.7-6,6s2.7,6,6,6C19.3,18.4,22,15.6,22,12.3z"/>
	<path class="st4" d="M19.4,11.1c0,0.9,0,1.7,0,2.5c0,0.5,0,1.1,0,1.6s-0.2,0.7-0.7,0.7c-0.6,0-1.1,0-1.7,0c-0.4,0-0.5-0.2-0.5-0.5
		c0-0.8,0-1.6,0-2.5c-0.4,0-0.7,0-1,0c0,0.8,0,1.5,0,2.3c0,0.6-0.1,0.7-0.7,0.7c-0.5,0-1,0-1.4,0c-0.6,0-0.8-0.2-0.8-0.8
		c0-1.3,0-2.6,0-4.1c-0.2,0.1-0.3,0.3-0.5,0.3c-0.1,0-0.4,0-0.4-0.1c-0.1-0.1,0-0.3,0-0.4c0-0.1,0.2-0.2,0.3-0.2c1.2-1,2.4-2,3.6-3
		c0.3-0.3,0.5-0.3,0.9,0c1.2,1,2.4,2,3.6,3c0.2,0.2,0.5,0.3,0.3,0.7c-0.3,0.3-0.5,0.1-0.7-0.1C19.6,11.2,19.5,11.2,19.4,11.1z
		 M18.7,15.2c0-1.5,0-3,0-4.5c0-0.1-0.1-0.2-0.1-0.3C17.7,9.7,16.9,9,16,8.3c-0.9,0.7-1.7,1.4-2.5,2.1c-0.1,0.1-0.2,0.3-0.2,0.4
		c0,0.8,0,1.5,0,2.3c0,0.7,0,1.4,0,2.2c0.5,0,1,0,1.5,0c0-0.4,0-0.8,0-1.2s0-0.8,0-1.2s0.2-0.6,0.6-0.6c0.4,0,0.7,0,1.1,0
		c0.6,0,0.7,0.1,0.7,0.7c0,0.7,0,1.5,0,2.3C17.7,15.2,18.2,15.2,18.7,15.2z"/>
</g>
</svg>
