<?xml version="1.0" encoding="utf-8"?>
<!-- Generator: Adobe Illustrator 27.3.1, SVG Export Plug-In . SVG Version: 6.00 Build 0)  -->
<svg version="1.1" id="Layer_1" xmlns="http://www.w3.org/2000/svg" xmlns:xlink="http://www.w3.org/1999/xlink" x="0px" y="0px"
	 viewBox="0 0 393.19 473.45" style="enable-background:new 0 0 393.19 473.45;" xml:space="preserve">
<style type="text/css">
	.st0{fill:#FFFFFF;}
</style>
<g>
	<path class="st0" d="M364.29,118.95c-0.86,23.86-1.33,46.27-2.56,68.65c-1.97,35.76-4.32,71.5-6.74,107.24
		c-3,44.47-6.48,88.9-9.22,133.39c-0.99,16.03-6.55,28.62-19.87,38.24c-9.49,6.85-19.88,7-30.45,6.98
		c-57.66-0.1-115.32-0.39-172.98-0.68c-11.2-0.06-22.41-0.05-33.59-0.62c-19.28-0.99-38.46-16.24-42.31-35.25
		c-2.8-13.86-3.68-28.18-4.51-42.35c-4.16-71.32-8.03-142.65-12-213.98c-1.04-18.58-2.02-37.17-3.2-55.74
		c-0.36-5.72,1.78-7.54,7.55-7.51c105.46,0.44,210.92,0.69,316.38,1.02C355.06,118.35,359.34,118.72,364.29,118.95z"/>
	<path class="st0" d="M196.86,88.77c-53.8,0-107.6,0.12-161.4-0.16c-6.64-0.03-13.85-0.94-19.8-3.65
		c-20.6-9.39-19.18-37.58-5.56-49.06c4.18-3.52,10.78-5.64,16.35-5.8c26.2-0.76,52.42-0.73,78.63-0.69c4.35,0.01,7.63-0.31,8.45-5.3
		c2.3-14.1,16.96-23.59,28.82-23.74c35.48-0.44,70.98-0.6,106.45,0.21c14.49,0.33,26.01,11.89,29.36,25.09
		c0.44,1.73,4.14,3.71,6.34,3.74c24.02,0.25,48.05,0.13,72.08,0.12c2.46,0,4.92,0.08,7.37,0.21c18.59,0.94,28.77,11.62,29.23,30.65
		c0.35,14.38-11.39,26.51-27.55,28.23c-3.79,0.4-7.64,0.27-11.46,0.27C301.74,88.9,249.3,88.9,196.86,88.9
		C196.86,88.85,196.86,88.81,196.86,88.77z"/>
</g>
</svg>
