<?xml version="1.0" encoding="utf-8"?>
<!-- Generator: Adobe Illustrator 24.2.1, SVG Export Plug-In . SVG Version: 6.00 Build 0)  -->
<svg version="1.1" id="Layer_1" xmlns="http://www.w3.org/2000/svg" xmlns:xlink="http://www.w3.org/1999/xlink" x="0px" y="0px"
	 viewBox="0 0 470.13 234.21" style="enable-background:new 0 0 470.13 234.21;" xml:space="preserve">
<style type="text/css">
	.st0{fill:#FFFFFF;}
</style>
<g>
	<path class="st0" d="M308.89,231.07c-2.27-1.11-3.78-1.8-5.26-2.57c-21.56-11.27-43.15-22.5-64.64-33.89
		c-2.95-1.56-5.2-1.67-8.21-0.06c-21.36,11.35-42.82,22.5-64.26,33.71c-1.61,0.84-3.25,1.62-5.81,2.9c0.37-2.53,0.57-4.26,0.87-5.97
		c4.17-24.11,8.29-48.23,12.6-72.32c0.54-3.02-0.07-4.96-2.27-7.09c-17.74-17.06-35.35-34.26-53.05-51.37
		c-1.11-1.07-2.62-1.71-3.95-2.55c0.29-0.56,0.58-1.12,0.87-1.67c5.12-0.79,10.23-1.61,15.36-2.36c20.83-3.06,41.66-6.16,62.51-9.07
		c3.08-0.43,4.67-1.81,5.98-4.5c10.82-22.11,21.77-44.15,32.69-66.21c0.67-1.36,1.42-2.68,2.48-4.67c1.05,1.92,1.81,3.2,2.47,4.54
		c10.92,22.06,21.88,44.1,32.67,66.22c1.4,2.88,3.11,4.21,6.34,4.66c24.65,3.45,49.28,7.11,73.91,10.73
		c1.21,0.18,2.39,0.58,3.58,0.88c0.41,0.55,0.82,1.1,1.23,1.65c-1.38,0.74-3.02,1.22-4.1,2.26c-17.51,16.9-34.89,33.92-52.45,50.76
		c-2.62,2.51-3.59,4.73-2.91,8.49c4.36,23.93,8.41,47.92,12.55,71.9C308.39,227.06,308.56,228.68,308.89,231.07z"/>
	<path class="st0" d="M408.31,84.33c-6.39-0.96-11.8-1.8-17.22-2.59c-12.67-1.84-25.33-3.75-38.02-5.43
		c-2.78-0.37-4.18-1.64-5.35-4.04c-7.29-14.96-14.71-29.86-22.09-44.78c-0.69-1.39-1.43-2.74-2.68-5.13
		c-6.8,13.61-13.21,26.45-19.79,39.63c-2.62-1.38-4.82-2.53-7.39-3.88c9.01-18.27,17.85-36.18,27.14-54.99
		c1.14,2.11,1.87,3.38,2.52,4.7c9.3,18.89,18.63,37.76,27.81,56.71c1.26,2.6,2.84,3.75,5.72,4.15c20.71,2.87,41.4,5.92,62.09,8.93
		c1.65,0.24,3.28,0.61,4.91,0.93c0.34,0.5,0.69,1,1.03,1.5c-1.34,0.8-2.9,1.39-3.99,2.44c-14.96,14.41-29.79,28.95-44.81,43.29
		c-2.58,2.46-3.18,4.75-2.55,8.22c3.74,20.57,7.23,41.19,10.78,61.8c0.21,1.23,0.29,2.48,0.53,4.66
		c-20.28-10.59-39.87-20.83-59.92-31.31c1.23-2.59,2.34-4.94,3.67-7.75c15.03,7.91,29.66,15.61,45.2,23.8
		c-1.41-8.46-2.62-15.86-3.87-23.26c-1.8-10.66-3.5-21.34-5.51-31.96c-0.55-2.92,0.22-4.75,2.25-6.72
		c11.97-11.57,23.83-23.25,35.71-34.9C405.56,87.28,406.56,86.16,408.31,84.33z"/>
	<path class="st0" d="M82.44,200.6c1.54-8.97,2.85-16.66,4.17-24.34c2.5-14.44,4.93-28.89,7.57-43.3c0.53-2.87-0.18-4.72-2.25-6.71
		c-15.09-14.48-30.05-29.09-45.09-43.62c-1.11-1.07-2.47-1.89-3.72-2.82c0.18-0.42,0.36-0.84,0.54-1.26
		c3.54-0.59,7.06-1.25,10.61-1.77c18.72-2.73,37.44-5.5,56.18-8.07c3.02-0.41,4.71-1.58,6.05-4.34
		c9.11-18.82,18.39-37.56,27.62-56.33c0.67-1.37,1.4-2.7,2.58-4.97c9.25,18.72,18.09,36.62,27.15,54.95
		c-2.39,1.33-4.56,2.54-7.31,4.08c-6.55-13.14-12.98-26.02-19.81-39.73c-1.18,2.24-1.92,3.56-2.59,4.91
		c-7.38,14.92-14.83,29.8-22.07,44.79c-1.34,2.77-3.06,3.93-6.07,4.34c-16.63,2.25-33.24,4.71-49.85,7.11
		c-1.23,0.18-2.43,0.53-4.48,0.98c1.38,1.53,2.3,2.66,3.33,3.68c11.78,11.56,23.52,23.15,35.41,34.6c2.38,2.29,3.26,4.4,2.64,7.8
		c-3.03,16.65-5.74,33.36-8.55,50.06c-0.18,1.1-0.28,2.21-0.55,4.45c15.3-8.06,29.89-15.73,44.85-23.6
		c1.32,2.47,2.49,4.68,4.01,7.55C122.89,179.44,103.21,189.73,82.44,200.6z"/>
</g>
</svg>
