<?xml version="1.0" encoding="utf-8"?>
<!-- Generator: Adobe Illustrator 24.2.1, SVG Export Plug-In . SVG Version: 6.00 Build 0)  -->
<svg version="1.1" id="Layer_1" xmlns="http://www.w3.org/2000/svg" xmlns:xlink="http://www.w3.org/1999/xlink" x="0px" y="0px"
	 viewBox="0 0 470.13 234.21" style="enable-background:new 0 0 470.13 234.21;" xml:space="preserve">
<style type="text/css">
	.st0{fill:#FFFFFF;}
</style>
<g>
	<path class="st0" d="M462.47,185.08c-0.69,1.97-1.39,3.93-2.1,5.93c-1.19,0.11-2.13,0.25-3.06,0.28
		c-12.55,0.36-12.55,0.35-16.3-11.14c-7.36-22.54-25.12-35.18-47.18-33.57c-22.15,1.61-37.76,17.95-41.87,44.64
		c-10.38,0-20.96,0-31.34,0c-2,11.8-2,11.8-13.72,11.8c-11.44,0-22.89,0.14-34.32-0.07c-4.16-0.08-10.42,1.79-10.54-5.07
		c-0.11-6.74,5.98-5.41,10.29-5.46c12.09-0.12,24.19-0.04,37.03-0.04c0-3.02,0-5.34,0-7.65c0-52.2,0.01-104.4-0.01-156.6
		c0-10.4-2.75-13.21-12.96-13.21c-66.03-0.01-132.05,0.05-198.08-0.09c-7.16-0.01-11.83,1.9-13.44,9.62
		c-0.39,1.88-3.78,3.14-5.79,4.69c-1.41-2.17-3.9-4.28-4.03-6.53c-0.45-8.17,7.17-16.56,15.61-17.8c2.81-0.41,5.7-0.36,8.56-0.36
		c65.31-0.02,130.62-0.02,195.93-0.01c18,0,24.55,6.52,24.57,24.4c0.01,10.42,0,20.84,0,32.24c16.23,0,31.67,0.26,47.09-0.13
		c5.76-0.15,8.99,1.73,11.75,6.81c7.16,13.16,14.8,26.07,22.59,38.88c1.6,2.64,4.32,5.15,7.12,6.41
		c13.42,6.07,26.98,11.86,40.63,17.39c4.65,1.88,7.5,4.59,8.4,9.57c1.6,8.84,3.42,17.65,5.15,26.47
		C462.47,172.68,462.47,178.88,462.47,185.08z M378.85,110.64c-6.03-11.34-11.63-21.95-17.37-32.48c-0.45-0.83-1.87-1.59-2.85-1.61
		c-8.23-0.13-16.46-0.07-24.66-0.07c0,11.81,0,22.86,0,34.16C348.83,110.64,363.23,110.64,378.85,110.64z"/>
	<path class="st0" d="M7.66,53.5c2.66-1.21,5.31-3.43,7.99-3.48c19.06-0.3,38.13-0.2,57.19-0.13c3.57,0.01,7.75-0.11,7.85,5.03
		c0.11,5.44-4.04,5.66-8.03,5.66C53.83,60.59,35,60.7,16.18,60.46c-2.85-0.04-5.68-1.74-8.52-2.67C7.66,56.36,7.66,54.93,7.66,53.5z
		"/>
	<path class="st0" d="M397.06,229.75c-20.14-0.41-35.71-16.75-35.29-37.02c0.42-20.17,16.68-35.62,37.06-35.22
		c20.15,0.39,35.56,16.57,35.26,37.02C433.79,214.55,417.38,230.16,397.06,229.75z M412.15,193.53
		c-0.18-7.48-6.97-14.11-14.35-14.01c-7.57,0.1-14.07,6.75-13.93,14.26c0.14,7.66,6.7,14.13,14.2,14.02
		C405.47,207.69,412.32,200.75,412.15,193.53z"/>
	<path class="st0" d="M246.89,193.67c0.07,20.23-16.02,36.2-36.35,36.09c-20.31-0.1-35.89-15.97-35.89-36.56
		c0-19.86,15.9-35.65,35.98-35.71C231,157.44,246.83,173.23,246.89,193.67z M224.89,193.48c-0.17-7.57-6.83-14.05-14.33-13.94
		c-7.49,0.11-14.1,6.9-13.92,14.31c0.18,7.6,6.79,14.05,14.31,13.96C218.42,207.71,225.06,200.89,224.89,193.48z"/>
	<path class="st0" d="M186.05,87.26c6.79,2.33,8,8.87,7.63,16.54c-0.36,7.34-0.08,14.7-0.08,22.65c-6.44,0-12.46,0-18.99,0
		c-2.56-11.18,1.77-23.84-2.69-34.74c-1.42,0.23-2.83,0.46-4.25,0.7c0,11.11,0,22.22,0,33.98c-7.14,0-13.64,0-20.74,0
		c0-25.3,0-50.86,0-77.93c11.63,0.54,23.47,0.31,35.03,2.05c3.82,0.57,8.3,5.61,9.92,9.64c1.93,4.79,2.11,10.88,1.16,16.05
		C192.32,80.1,188.6,83.43,186.05,87.26z M167.91,79.03c5.84,1.01,6.1-2.85,5.88-6.38c-0.26-4.06,2.2-9.94-5.88-10.58
		C167.91,67.95,167.91,73.45,167.91,79.03z"/>
	<path class="st0" d="M248.97,126.68c0-26.17,0-51.58,0-77.4c11.5,0,22.61,0,34.25,0c0,4.57,0,9.18,0,14.29
		c-4.23,0.23-8.41,0.45-13.13,0.7c0,4.81,0,9.41,0,14.75c3.83,0,7.74,0,12.21,0c0,5.07,0,9.45,0,14.52
		c-4.03,0.32-8.15,0.66-12.5,1.01c0,5.71,0,10.9,0,17c4.92,0,9.77,0,15.01,0c0,5.51,0,10.13,0,15.12
		C272.87,126.68,261.3,126.68,248.97,126.68z"/>
	<path class="st0" d="M204.19,49.27c11.55,0,22.85,0,34.54,0c0,4.77,0,9.19,0,14.32c-4.26,0.2-8.44,0.41-13.18,0.63
		c0,4.81,0,9.42,0,14.76c3.68,0,7.6,0,12.01,0c0,5.09,0,9.48,0,14.7c-3.76,0.2-7.66,0.41-12.07,0.65c0,5.61,0,10.96,0,17.17
		c4.69,0,9.54,0,14.83,0c0,5.47,0,10.09,0,15.13c-12.06,0-23.87,0-36.14,0C204.19,100.86,204.19,75.27,204.19,49.27z"/>
	<path class="st0" d="M103.77,49.19c11.82,0,23.16,0,34.98,0c0,4.74,0,9.35,0,14.37c-4.55,0.26-8.96,0.5-13.74,0.77
		c0,5.05,0,9.66,0,14.82c4.08,0,7.81,0,12.09,0c0,4.9,0,9.27,0,14.51c-3.67,0.21-7.56,0.43-12.4,0.7c0,10.81,0,21.36,0,32.27
		c-7.51,0-14.04,0-20.93,0C103.77,100.83,103.77,75.44,103.77,49.19z"/>
	<path class="st0" d="M123.94,203.03c-9.06,0-18.11,0.07-27.17-0.02c-13.78-0.14-21.75-8.05-21.9-21.71
		c-0.07-6.2-0.47-12.45,0.24-18.56c0.26-2.28,3.26-4.24,5.02-6.34c1.7,2.1,4.5,4.03,4.86,6.35c0.76,4.89,0.23,9.97,0.25,14.98
		c0.04,11.99,2.83,14.88,14.58,14.87c16.92-0.03,33.84-0.13,50.76-0.19c1.67-0.01,3.71-0.56,4.92,0.2c2.13,1.34,3.75,3.5,5.58,5.31
		c-1.89,1.68-3.72,4.74-5.69,4.83c-10.46,0.48-20.96,0.23-31.45,0.23C123.94,202.99,123.94,203.01,123.94,203.03z"/>
	<path class="st0" d="M50.89,95.96c-6.89,0-13.77,0.03-20.66-0.01c-3.94-0.02-8.28-0.18-8.12-5.54c0.15-5.32,4.56-5.21,8.45-5.21
		c13.77-0.02,27.55-0.03,41.32,0.01c4.05,0.01,8.91-0.38,8.77,5.54c-0.14,5.96-5.19,5.11-9.1,5.18
		C64.66,96.06,57.77,95.97,50.89,95.96z"/>
	<path class="st0" d="M56.72,131.18c-6.19,0-12.42,0.4-18.55-0.22c-2.17-0.22-4.09-2.93-6.12-4.51c2-1.91,3.94-5.39,6.02-5.48
		c12.12-0.53,24.29-0.52,36.41-0.02c2.16,0.09,4.2,3.31,6.29,5.08c-2.06,1.73-3.98,4.67-6.22,4.94c-5.87,0.7-11.88,0.24-17.83,0.24
		C56.72,131.2,56.72,131.19,56.72,131.18z"/>
</g>
</svg>
