<?xml version="1.0" encoding="utf-8"?>
<!-- Generator: Adobe Illustrator 24.2.1, SVG Export Plug-In . SVG Version: 6.00 Build 0)  -->
<svg version="1.1" id="Layer_1" xmlns="http://www.w3.org/2000/svg" xmlns:xlink="http://www.w3.org/1999/xlink" x="0px" y="0px"
	 viewBox="0 0 470.13 234.21" style="enable-background:new 0 0 470.13 234.21;" xml:space="preserve">
<style type="text/css">
	.st0{fill:#FFFFFF;}
</style>
<g>
	<path class="st0" d="M309.46,94.71c-0.26-3.86-0.58-7.71-0.92-11.56c-0.36-4.1-0.74-8.21-1.17-12.3
		c-0.45-4.33-0.92-8.65-1.49-12.96c-0.29-2.19-0.74-4.38-1.26-6.53c-0.34-1.38-1.18-2.59-2.53-3.15c-1.4-0.57-2.87-1.04-4.36-1.3
		c-2.69-0.47-5.4-0.77-8.11-1.12c-1.3-0.17-2.61-0.3-3.91-0.44c-0.45,1.57-0.33,3.1-0.15,4.61c0.4,3.42,0.88,6.84,1.31,10.25
		c0.06,0.48,0.28,0.78,0.66,1.07c6.64,4.87,9.02,14.01,5.5,21.42c-2.94,6.17-7.88,9.64-14.69,10.2c-5.81,0.48-10.78-1.51-14.61-5.91
		c-5.21-5.99-5.83-14.44-1.74-21.26c0.12-0.2,0.23-0.47,0.2-0.69c-0.54-3.89-1.16-7.78-1.64-11.68c-0.35-2.82-0.57-5.67-0.25-8.52
		c0.05-0.43,0.05-0.86,0.07-1.33c-0.53-0.03-0.99-0.08-1.45-0.09c-5.35-0.15-10.69-0.37-16.04-0.43
		c-5.37-0.07-10.75-0.12-16.11,0.42c-1.11,0.11-2.03,0.48-2.87,1.32c-30.89,30.93-61.81,61.84-92.72,92.75
		c-0.31,0.31-0.63,0.61-0.93,0.94c-3.13,3.47-4.4,7.54-3.82,12.17c0.44,3.48,2.05,6.37,4.52,8.84
		c16.2,16.17,32.38,32.36,48.56,48.55c4.54,4.54,9.08,9.07,13.61,13.61c1.94,1.94,4.22,3.3,6.88,4c0.73,0.19,1.48,0.32,2.22,0.48
		c1.07,0,2.13,0,3.2,0c0.09-0.04,0.17-0.1,0.26-0.11c3.54-0.43,6.48-2.02,8.98-4.53c31.07-31.08,62.14-62.16,93.23-93.22
		c0.68-0.68,1.12-1.46,1.36-2.37c0.7-2.66,0.85-5.39,0.93-8.12C310.39,110.01,309.97,102.36,309.46,94.71z M264.26,133.2
		c-1.06-4.4-4.22-10.38-9.15-15.21c-5.92-5.79-12.87-8.33-20.63-7.85c-6.53,0.1-13.76,3.11-20.78,8.1l30.6,29.9l-5.59,5.72
		L207.12,123c-1.56,1.38-3.35,2.99-4.92,4.59c-0.67,0.69-1.23,1.26-2.01,2.06l31.81,31.08l-5.48,5.61l-31.04-30.33
		c-5.61,7.49-8.22,14.56-8.62,20.89c-0.3,8.43,3.06,15.96,8.98,21.75c5.81,5.68,13.09,8.32,17.07,9.3l-5.18,9.03
		c-5.75-0.92-13.8-4.09-21.04-11.16c-8.88-8.68-13.31-19.94-12.31-31.94c0.53-8.88,4.27-18.2,11.34-27.4l-6.8-6.64l5.48-5.61
		l6.25,6.11c0.56-0.57,1.12-1.14,1.68-1.72c1.79-1.83,3.58-3.44,5.25-4.94l-6.47-6.32l5.59-5.72l7.24,7.07
		c9.14-6.72,18.92-10.15,27.89-10.55c11.52-0.6,22,2.93,31,11.72c6.47,6.32,9.61,13.2,11.01,17.92L264.26,133.2z"/>
	<path class="st0" d="M339.92,31.39c-3.68-8.16-9.27-14.63-17.23-18.86c-7.78-4.14-16.08-5.3-24.7-3.6
		c-11.81,2.32-20.71,8.84-26.73,19.21c-4.54,7.81-5.97,16.29-4.61,25.17c1.2,7.86,2.65,15.68,4.07,23.51
		c0.67,3.69,4.13,5.94,7.67,5.17c3.6-0.78,5.7-4.25,4.93-7.92c-0.78-3.71-1.53-7.42-2.15-11.16c-0.59-3.58-1.06-7.19-1.49-10.79
		c-0.37-3.15-0.54-6.32,0.07-9.48c1.59-8.29,6.03-14.52,13.44-18.55c5.32-2.89,11.04-3.56,16.97-2.53
		c6.07,1.06,11.05,3.99,14.79,8.9c4.08,5.35,5.77,11.54,5.95,18.15c0.21,7.71-0.62,15.34-2.2,22.89
		c-2.23,10.62-5.76,20.77-11.1,30.26c-0.78,1.38-0.96,2.89-0.63,4.44c0.57,2.61,2.62,4.59,5.16,5.02c2.73,0.47,5.34-0.62,6.71-3.02
		c1.32-2.3,2.54-4.67,3.65-7.08c4.24-9.19,7.26-18.77,9.18-28.71c1.35-6.97,2.06-14,2.18-21.1
		C343.97,44.38,342.77,37.71,339.92,31.39z"/>
</g>
</svg>
