<?xml version="1.0" encoding="utf-8"?>
<!-- Generator: Adobe Illustrator 24.2.1, SVG Export Plug-In . SVG Version: 6.00 Build 0)  -->
<svg version="1.1" id="Layer_1" xmlns="http://www.w3.org/2000/svg" xmlns:xlink="http://www.w3.org/1999/xlink" x="0px" y="0px"
	 viewBox="0 0 256 256" style="enable-background:new 0 0 256 256;" xml:space="preserve">
<g>
	<g>
		<path d="M23.7,225.3c-2,0-3.9-1.2-4.8-3c-1-2.1-0.5-4.7,1.2-6.3c8.6-7.7,13.6-18.6,16.3-26.4l0.2-0.6l-0.5-0.3
			c-9.7-5.9-17.9-13.4-23.7-21.6c-3.5-4.9-6.1-10.1-7.9-15.4c-1.9-5.6-2.8-11.3-2.8-17.1c0-9.7,2.6-19.2,7.9-28
			c4.9-8.4,12-15.9,20.9-22.3c2.3-1.6,4.7-3.2,7.1-4.6c-2.7,5.5-4.6,11.2-5.7,17c-12.6,10.7-19.5,24.1-19.5,37.9
			c0,18.6,12.1,35.8,33.2,47.2c2.2,1.2,3.3,3.7,2.6,6.2c-1.8,6.2-4.1,12-6.8,17.4c-0.5,1-1.1,2-1.6,2.9l-1.1,1.9l2-0.8
			c9.3-3.8,16.4-8.3,21.2-13.6c2.4-2.6,5.7-4.1,9.3-4.1c0.8,0,1.7,0.1,2.5,0.3c7.8,1.6,15.8,2.4,24,2.4c5.7,0,11.3-0.4,16.8-1.2
			c9.4,2,19.1,3.1,29,3.3c-2.9,1.2-5.9,2.2-9,3.1c-11.7,3.5-24,5.3-36.8,5.3c-8.9,0-17.7-0.9-26.2-2.6c-0.1,0-0.2,0-0.3,0
			c-0.5,0-1,0.2-1.4,0.6c-15.3,16.8-43.8,22.1-45,22.3C24.4,225.3,24.1,225.3,23.7,225.3L23.7,225.3z"/>
	</g>
	<path d="M229.2,211.3c-1.4-0.2-33.4-6.2-50.5-25c-0.7-0.8-1.7-1.1-2.7-0.9c-9.5,2-19.5,3-29.5,3c-14.4,0-28.3-2-41.4-6
		c-12.8-3.9-24.2-9.4-34.1-16.5c-10-7.2-17.9-15.6-23.4-25c-5.8-9.9-8.8-20.4-8.8-31.3s3-21.4,8.8-31.3c5.5-9.4,13.4-17.8,23.4-25
		c9.9-7.1,21.4-12.7,34.1-16.5c13.1-4,27.1-6,41.4-6c14.4,0,28.3,2,41.4,6c12.8,3.9,24.2,9.4,34.1,16.5c10,7.2,17.9,15.6,23.4,25
		c5.8,9.9,8.8,20.4,8.8,31.3c0,6.5-1.1,12.9-3.2,19.1c-2,6-5,11.8-8.9,17.3c-6.8,9.5-16.3,18.1-27.7,24.9c3,9,8.8,22.3,19.1,31.6
		c1.7,1.6,2.2,4.1,1.2,6.1c-0.9,1.8-2.7,2.9-4.7,2.9C229.9,211.4,229.6,211.4,229.2,211.3z M77.1,61.7c-18,12.9-27.9,29.9-27.9,47.9
		c0,18,9.9,35,27.9,47.9c18.5,13.3,43.2,20.6,69.5,20.6c9.3,0,18.5-0.9,27.4-2.8c4.6-0.9,9.4,0.6,12.5,4.1
		c7.7,8.4,19.4,14,28.9,17.4c-1.5-2.3-3-4.8-4.3-7.4c-3.1-6-5.7-12.6-7.7-19.5c-0.7-2.3,0.4-4.8,2.5-6
		c24.2-13.1,38.1-32.9,38.1-54.2c0-18-9.9-35-27.9-47.9c-18.5-13.3-43.2-20.6-69.5-20.6C120.3,41.1,95.6,48.4,77.1,61.7z"/>
	<g>
		<circle cx="182.6" cy="111" r="13"/>
		<ellipse transform="matrix(0.9732 -0.2298 0.2298 0.9732 -21.592 36.6437)" cx="146.6" cy="111" rx="13" ry="13"/>
		<circle cx="110.5" cy="111" r="13"/>
	</g>
</g>
</svg>
