<?xml version="1.0" encoding="utf-8"?>
<!-- Generator: Adobe Illustrator 24.2.1, SVG Export Plug-In . SVG Version: 6.00 Build 0)  -->
<svg version="1.1" id="Layer_1" xmlns="http://www.w3.org/2000/svg" xmlns:xlink="http://www.w3.org/1999/xlink" x="0px" y="0px"
	 viewBox="0 0 32 32" style="enable-background:new 0 0 32 32;" xml:space="preserve">
<style type="text/css">
	.st0{display:none;}
	.st1{display:inline;}
	.st2{display:inline;stroke:#000000;stroke-miterlimit:10;}
	.st3{display:inline;stroke:#000000;stroke-width:0.75;stroke-miterlimit:10;}
	.st4{display:inline;stroke:#000000;stroke-width:0.25;stroke-miterlimit:10;}
</style>
<g id="user_people_person_users_man" class="st0">
	<path class="st1" d="M23.7,16.2c-0.4-0.4-1-0.4-1.4,0c-0.4,0.4-0.4,1,0,1.4c1.7,1.7,2.7,4,2.7,6.4c0,1.2-3.5,3-9,3s-9-1.8-9-3
		c0-2.4,0.9-4.7,2.6-6.4c0.4-0.4,0.4-1,0-1.4c-0.4-0.4-1-0.4-1.4,0C6.1,18.3,5,21.1,5,24c0,3.3,5.7,5,11,5s11-1.8,11-5
		C27,21.1,25.8,18.2,23.7,16.2z"/>
	<path class="st1" d="M16,17c3.9,0,7-3.1,7-7s-3.1-7-7-7s-7,3.1-7,7S12.1,17,16,17z M16,5c2.8,0,5,2.2,5,5s-2.2,5-5,5s-5-2.2-5-5
		S13.2,5,16,5z"/>
</g>
<g class="st0">
	<path class="st2" d="M6.6,12.3c0-5.2,4.2-9.4,9.4-9.4c5.2,0,9.4,4.2,9.3,9.4c0,2.2-0.7,4.3-1.7,6.2c-1.5,3-3.5,5.6-5.6,8.2
		c-0.6,0.7-1.1,1.4-1.7,2.1c-0.3,0.3-0.5,0.3-0.8,0C12.8,25.4,10,22,8,18C7.2,16.2,6.6,14.3,6.6,12.3z M16,28.1c0.8-1,1.6-2,2.3-2.9
		c1.8-2.4,3.6-4.8,4.9-7.6c0.9-1.9,1.5-4,1.3-6.2c-0.4-4.6-4.4-8-9-7.8c-4.5,0.2-8.2,4-8.2,8.6c0,2.1,0.7,4,1.6,5.8
		C10.8,21.7,13.4,24.9,16,28.1z"/>
	<path class="st3" d="M16,5.6c3.7,0,6.7,3.1,6.7,6.8c0,3.7-3.1,6.7-6.8,6.7c-3.7,0-6.7-3.1-6.7-6.8C9.3,8.5,12.3,5.5,16,5.6z
		 M22,12.3c0-3.3-2.7-6-6-6.1c-3.3,0-6,2.7-6,6c0,3.3,2.7,6,6,6C19.3,18.4,22,15.6,22,12.3z"/>
	<path class="st4" d="M19.4,11.1c0,0.9,0,1.7,0,2.5c0,0.5,0,1.1,0,1.6c0,0.5-0.2,0.7-0.7,0.7c-0.6,0-1.1,0-1.7,0
		c-0.4,0-0.5-0.2-0.5-0.5c0-0.8,0-1.6,0-2.5c-0.4,0-0.7,0-1,0c0,0.8,0,1.5,0,2.3c0,0.6-0.1,0.7-0.7,0.7c-0.5,0-1,0-1.4,0
		c-0.6,0-0.8-0.2-0.8-0.8c0-1.3,0-2.6,0-4.1c-0.2,0.1-0.3,0.3-0.5,0.3c-0.1,0-0.4,0-0.4-0.1c-0.1-0.1,0-0.3,0-0.4
		c0-0.1,0.2-0.2,0.3-0.2c1.2-1,2.4-2,3.6-3c0.3-0.3,0.5-0.3,0.9,0c1.2,1,2.4,2,3.6,3c0.2,0.2,0.5,0.3,0.3,0.7
		c-0.3,0.3-0.5,0.1-0.7-0.1C19.6,11.2,19.5,11.2,19.4,11.1z M18.7,15.2c0-1.5,0-3,0-4.5c0-0.1-0.1-0.2-0.1-0.3
		C17.7,9.7,16.9,9,16,8.3c-0.9,0.7-1.7,1.4-2.5,2.1c-0.1,0.1-0.2,0.3-0.2,0.4c0,0.8,0,1.5,0,2.3c0,0.7,0,1.4,0,2.2c0.5,0,1,0,1.5,0
		c0-0.4,0-0.8,0-1.2c0-0.4,0-0.8,0-1.2c0-0.4,0.2-0.6,0.6-0.6c0.4,0,0.7,0,1.1,0c0.6,0,0.7,0.1,0.7,0.7c0,0.7,0,1.5,0,2.3
		C17.7,15.2,18.2,15.2,18.7,15.2z"/>
</g>
<g class="st0">
	<path class="st1" d="M24,2.5c0.1,0,0.2,0.1,0.3,0.1c2.6,0.5,4.3,2,5,4.5c0.7,2.5,0,4.7-2,6.4c-0.5,0.4-0.7,0.9-0.7,1.5
		c-0.2,2.4-0.5,4.8-0.7,7.2c-0.3,0-0.5,0-0.7,0c-5.3,0-10.5,0-15.8,0c-1,0-1.5,0.3-1.5,1c0,0.7,0.5,1.1,1.6,1.1c5.2,0,10.5,0,15.7,0
		c0.2,0,0.5,0,0.8,0c0,0.5,0,1,0,1.5c-0.6,0-1.2,0-1.8,0c0.4,1.4,0.1,2.5-1.1,3.3c-0.9,0.6-1.9,0.5-2.8-0.1
		c-0.9-0.6-1.2-1.6-0.9-3.1c-1.4,0-2.8,0-4.2,0c0.3,1.3,0.1,2.5-1.2,3.2c-0.9,0.6-1.9,0.5-2.8-0.1c-1-0.8-1.2-1.8-0.9-3.1
		c-0.4,0-0.7,0-1,0c-1.3,0-2.4-0.7-2.7-1.9c-0.3-1.2,0.2-2.3,1.4-3c0.1-0.1,0.3-0.3,0.3-0.5c-0.4-4.5-0.9-9.1-1.4-13.6
		C6.4,5.9,6.3,5.1,6.2,4.1c-1.3,0-2.5,0-3.7,0c0-0.5,0-1,0-1.6c1.7,0,3.4,0,5.2,0C7.8,3.7,7.9,4.9,8,6.1c0.2,0,0.3,0,0.3,0
		c3,0,5.9,0,8.9,0c0.2,0,0.5-0.2,0.6-0.4c0.7-1.1,1.5-2,2.7-2.5c0.6-0.3,1.3-0.4,2-0.7C23,2.5,23.5,2.5,24,2.5z M24.9,14.8
		c-4.7,1-8.4-2.6-7.9-7c-3,0-5.9,0-8.9,0c0.4,4.3,0.9,8.6,1.3,12.8c5,0,9.9,0,14.9,0C24.6,18.6,24.7,16.7,24.9,14.8z M23.2,13.4
		c2.5,0,4.7-2.1,4.7-4.6c0-2.5-2.1-4.7-4.6-4.7c-2.6,0-4.7,2.1-4.7,4.6C18.6,11.3,20.7,13.4,23.2,13.4z M22.5,26.9c0-0.5-0.5-1-1-1
		c-0.6,0-1,0.4-1.1,1c0,0.5,0.5,1,1,1.1C22,27.9,22.5,27.4,22.5,26.9z M13.4,26.9c0-0.6-0.5-1-1-1c-0.6,0-1,0.4-1,1
		c0,0.6,0.4,1,1,1.1C12.9,27.9,13.4,27.4,13.4,26.9z"/>
	<path class="st1" d="M14,18.6c-0.5,0-1,0-1.5,0c0-0.5,0-1,0-1.5c0.5,0,1,0,1.5,0C14,17.6,14,18.1,14,18.6z"/>
	<path class="st1" d="M17.7,17.1c0,0.5,0,1,0,1.5c-0.5,0-1,0-1.5,0c0-0.5,0-1,0-1.5C16.6,17.1,17.1,17.1,17.7,17.1z"/>
	<path class="st1" d="M19.8,18.5c0-0.5,0-1,0-1.5c0.5,0,1,0,1.5,0c0,0.5,0,1,0,1.5C20.8,18.5,20.3,18.5,19.8,18.5z"/>
	<path class="st1" d="M22.7,11.2c-0.8-0.8-1.6-1.6-2.4-2.4c0.3-0.3,0.7-0.6,1.1-1c0.4,0.4,0.8,0.9,1.3,1.4c0.8-0.9,1.6-1.7,2.4-2.5
		c0.4,0.4,0.7,0.8,1.1,1.1C25,8.9,23.9,10.1,22.7,11.2z"/>
</g>
<g>
	<path d="M17.9,16.9c0-0.4-0.3-0.8-0.6-1c-0.3-0.2-0.6-0.3-0.9-0.3c-0.5-0.1-1,0-1.5,0.3c-0.4,0.2-0.6,0.5-0.7,0.9
		c0,0.1,0,0.1,0,0.2c-1.9,0-3.8,0-5.7,0c0-0.1,0-0.2,0-0.3c0-0.2,0-0.5,0-0.7c0-0.4,0-0.8,0-1.3c0-0.6,0.3-1.1,0.9-1.4
		c0.1-0.1,0.3-0.1,0.4-0.1c0.5,0,0.9,0,1.4,0c0.1,0,0.2,0,0.2-0.2c0-1.4,0-2.7,0-4.1c0-0.5,0.1-0.9,0.2-1.3C11.8,7,12.1,6.4,12.6,6
		c0.5-0.4,1-0.8,1.6-1c0.4-0.1,0.7-0.2,1.1-0.3c0.4,0,0.8-0.1,1.2,0c0.3,0,0.7,0.1,1,0.2c0.5,0.2,1,0.4,1.5,0.7
		c0.4,0.3,0.8,0.7,1,1.1c0.2,0.3,0.4,0.7,0.5,1.1c0.2,0.5,0.2,1,0.2,1.5c0,1,0,2.1,0,3.1c0,0.2,0,0.4,0,0.7c0,0.1,0,0.1,0.1,0.1
		c0.5,0,0.9,0,1.4,0c0.3,0,0.5,0.1,0.7,0.3c0.2,0.2,0.4,0.4,0.5,0.7c0.1,0.2,0.1,0.4,0.1,0.6c0,0.7,0,1.4,0,2.1c0,0,0,0,0,0.1
		C21.7,16.9,19.8,16.9,17.9,16.9z M19.8,13.2c0-0.1,0-0.1,0-0.2c0-1.4,0-2.8,0-4.2c0-0.3-0.1-0.6-0.2-0.9c-0.1-0.3-0.2-0.6-0.5-0.8
		c-0.2-0.2-0.5-0.5-0.7-0.7c-0.3-0.2-0.7-0.4-1-0.5c-0.3-0.1-0.7-0.2-1.1-0.2c-0.3,0-0.5,0-0.8,0c-0.4,0-0.7,0.1-1,0.3
		c-0.3,0.1-0.7,0.3-0.9,0.5c-0.3,0.2-0.5,0.5-0.7,0.7c-0.2,0.3-0.4,0.6-0.5,0.9c0,0.2-0.1,0.3-0.1,0.5c0,1.5,0,2.9,0,4.4
		c0,0,0,0.1,0,0.1C14.8,13.2,17.2,13.2,19.8,13.2z"/>
	<path d="M16,17.4c3.8,0,7.6,0,11.4,0c0.6,0,1.1,0.3,1.5,0.8c0.2,0.3,0.3,0.7,0.3,1.1c0,0.2,0,0.4,0,0.6c0,0.2,0,0.5,0,0.7
		c0,1.6,0,3.2,0,4.8c0,0.7-0.2,1.2-0.8,1.6c-0.3,0.2-0.7,0.3-1.1,0.3c-2.1,0-4.1,0-6.2,0c-2.8,0-5.6,0-8.4,0c-0.3,0-0.7,0-1,0
		c-2.3,0-4.6,0-7,0c-0.7,0-1.2-0.3-1.6-0.9c-0.2-0.2-0.2-0.5-0.3-0.8c0-0.3,0-0.5,0-0.8c0-1.9,0-3.8,0-5.6c0-0.7,0.3-1.2,0.9-1.6
		c0.3-0.2,0.6-0.3,1-0.3C8.4,17.4,12.2,17.4,16,17.4z M16,18.3c-0.8,0-1.5,0-2.3,0c-3,0-5.9,0-8.9,0c-0.2,0-0.5,0-0.7,0.2
		C4,18.6,3.8,18.8,3.8,19c0,0.2,0,0.4,0,0.6c0,0.4,0,0.7,0,1.1c0,1.5,0,3,0,4.5c0,0.1,0,0.3,0,0.4c0,0.4,0.3,0.6,0.7,0.7
		c0.2,0,0.5,0,0.7,0c2.8,0,5.7,0,8.5,0c3,0,6,0,8.9,0c1.5,0,3.1,0,4.6,0c0.2,0,0.4,0,0.6-0.1c0.2-0.1,0.4-0.3,0.4-0.5
		c0-0.3,0.1-0.5,0.1-0.8c0-1.8,0-3.7,0-5.5c0-0.3,0-0.5-0.2-0.7c-0.2-0.2-0.5-0.3-0.8-0.3C23.5,18.3,19.8,18.3,16,18.3z"/>
	<path d="M19.8,22.4c0.2,0.1,0.4,0.3,0.6,0.4c0.2,0.1,0.3,0.2,0.5,0.3c0.1,0.1,0.3,0.4,0.2,0.6c-0.1,0.2-0.3,0.3-0.5,0.3
		c-0.1,0-0.2-0.1-0.4-0.2c-0.2-0.1-0.5-0.3-0.7-0.5c0,0,0,0.1,0,0.1c0,0.3,0,0.5,0,0.8c0,0.3-0.1,0.4-0.3,0.5
		c-0.3,0.1-0.6-0.1-0.6-0.4c0-0.3,0-0.6,0-0.8c0,0,0-0.1,0-0.2c-0.1,0.1-0.2,0.1-0.3,0.2c-0.2,0.1-0.4,0.3-0.6,0.4
		c-0.2,0.1-0.5,0.1-0.7-0.1c-0.1-0.2-0.1-0.5,0.2-0.7c0.3-0.2,0.6-0.4,1-0.6c0,0,0,0,0-0.1c-0.4-0.2-0.7-0.5-1.1-0.7
		c-0.2-0.2-0.2-0.4-0.1-0.6c0.1-0.2,0.4-0.3,0.6-0.2c0.2,0.1,0.4,0.2,0.6,0.3c0.1,0.1,0.3,0.2,0.4,0.3c0-0.1,0-0.1,0-0.2
		c0-0.3,0-0.5,0-0.8c0-0.2,0.1-0.4,0.3-0.5c0.3-0.1,0.6,0.1,0.6,0.4c0,0.2,0,0.4,0,0.6c0,0.1,0,0.3,0,0.4c0.2-0.1,0.3-0.2,0.5-0.3
		c0.2-0.1,0.3-0.2,0.5-0.3c0.1-0.1,0.4,0,0.5,0.2c0.1,0.1,0.1,0.3,0.1,0.5c-0.1,0.2-0.3,0.3-0.4,0.4c-0.1,0.1-0.3,0.2-0.4,0.3
		C20.1,22.2,20,22.3,19.8,22.4z"/>
	<path d="M12.4,22.3c-0.4-0.2-0.7-0.4-1-0.7c-0.2-0.1-0.3-0.3-0.2-0.5c0.1-0.3,0.2-0.4,0.5-0.4c0.1,0,0.3,0.1,0.4,0.1
		c0.3,0.2,0.5,0.4,0.8,0.5c0,0,0-0.1,0-0.1c0-0.3,0-0.6,0-0.9c0-0.3,0.2-0.4,0.4-0.5c0.2-0.1,0.4,0,0.5,0.2c0,0.1,0.1,0.2,0.1,0.3
		c0,0.3,0,0.5,0,0.8c0,0,0,0.1,0,0.2c0.3-0.2,0.6-0.4,0.9-0.6c0.1-0.1,0.4-0.1,0.5,0c0.2,0.1,0.2,0.3,0.2,0.5c0,0.1-0.1,0.2-0.2,0.3
		c-0.3,0.2-0.6,0.4-1,0.6c0.1,0.1,0.2,0.1,0.3,0.2c0.3,0.2,0.5,0.3,0.8,0.5c0.3,0.2,0.2,0.7-0.1,0.8c-0.1,0.1-0.3,0.1-0.5,0
		c-0.3-0.2-0.6-0.4-0.9-0.6c0,0,0,0-0.1,0c0,0,0,0.1,0,0.1c0,0.3,0,0.6,0,0.8c0,0.3-0.1,0.4-0.4,0.5c-0.2,0-0.5-0.1-0.5-0.4
		c0-0.3,0-0.7,0-1c-0.1,0.1-0.2,0.1-0.3,0.2c-0.2,0.1-0.4,0.3-0.6,0.4c-0.1,0.1-0.4,0-0.5-0.1c-0.1-0.2-0.2-0.3-0.1-0.5
		c0.1-0.2,0.3-0.3,0.4-0.4C11.9,22.7,12.1,22.5,12.4,22.3z"/>
	<path d="M6.5,22.3c-0.3-0.2-0.7-0.4-1-0.7c-0.2-0.1-0.3-0.5-0.1-0.7c0.2-0.2,0.4-0.3,0.7-0.1c0.3,0.2,0.6,0.4,0.9,0.6
		c0-0.3,0-0.7,0-1c0-0.3,0.1-0.4,0.4-0.5c0.2-0.1,0.6,0.2,0.6,0.4c0,0.3,0,0.7,0,1.1c0.2-0.1,0.4-0.2,0.5-0.4
		c0.2-0.1,0.3-0.2,0.5-0.3c0.3-0.1,0.6,0.1,0.6,0.4c0,0.2-0.1,0.4-0.3,0.5c-0.3,0.2-0.6,0.4-1,0.6c0.2,0.1,0.3,0.2,0.5,0.4
		c0.1,0,0.1,0.1,0.2,0.1C9.1,23,9.4,23,9.5,23.2c0.1,0.2,0,0.6-0.3,0.7c-0.2,0.1-0.4-0.1-0.6-0.2c-0.2-0.1-0.4-0.3-0.6-0.4
		c0,0-0.1,0-0.1-0.1c0,0.3,0,0.7,0,1c0,0.3-0.4,0.6-0.7,0.4c-0.1-0.1-0.3-0.2-0.3-0.4c0-0.3,0-0.7,0-1c-0.1,0-0.1,0.1-0.2,0.1
		c-0.2,0.2-0.5,0.3-0.7,0.5c-0.1,0.1-0.3,0.1-0.5,0c-0.2-0.1-0.3-0.2-0.3-0.4c0-0.2,0.1-0.3,0.2-0.4C5.8,22.8,6.2,22.6,6.5,22.3
		C6.5,22.4,6.5,22.4,6.5,22.3z"/>
	<path d="M25.1,23.2c0,0.4,0,0.7,0,1c0,0.2-0.1,0.4-0.4,0.5c-0.1,0-0.4-0.1-0.5-0.3c0-0.1-0.1-0.2-0.1-0.3c0-0.3,0-0.6,0-0.9
		c-0.1,0-0.1,0.1-0.2,0.1c-0.2,0.2-0.5,0.3-0.7,0.5c-0.1,0.1-0.3,0.1-0.4,0c-0.1-0.1-0.2-0.2-0.3-0.4c0-0.2,0.1-0.4,0.3-0.5
		c0.3-0.2,0.6-0.4,0.9-0.6c0,0,0,0,0-0.1c-0.3-0.2-0.7-0.4-1-0.6c-0.2-0.1-0.3-0.3-0.2-0.6c0-0.2,0.2-0.3,0.4-0.3
		c0.2,0,0.3,0.1,0.4,0.2c0.3,0.2,0.5,0.3,0.8,0.5c0-0.1,0-0.1,0-0.2c0-0.3,0-0.6,0-0.9c0-0.2,0.3-0.5,0.5-0.5c0.2,0,0.5,0.2,0.5,0.4
		c0,0.3,0,0.7,0,1c0.2-0.1,0.4-0.2,0.5-0.4c0.2-0.1,0.3-0.2,0.5-0.3c0.2-0.1,0.6,0.1,0.6,0.4c0,0.2-0.1,0.4-0.3,0.5
		c-0.3,0.2-0.6,0.4-1,0.6c0.1,0,0.1,0.1,0.2,0.1c0.3,0.2,0.6,0.4,0.8,0.5c0.3,0.2,0.3,0.7,0,0.8c-0.2,0.1-0.3,0.1-0.5,0
		c-0.1,0-0.1-0.1-0.2-0.1c-0.2-0.1-0.4-0.3-0.6-0.4C25.2,23.3,25.1,23.3,25.1,23.2z"/>
</g>
</svg>
