<?xml version="1.0" encoding="utf-8"?>
<!-- Generator: Adobe Illustrator 24.2.1, SVG Export Plug-In . SVG Version: 6.00 Build 0)  -->
<svg version="1.1" id="Layer_1" xmlns="http://www.w3.org/2000/svg" xmlns:xlink="http://www.w3.org/1999/xlink" x="0px" y="0px"
	 viewBox="0 0 256 256" style="enable-background:new 0 0 256 256;" xml:space="preserve">
<g>
	<path d="M55.5,34.4c2.7,0.3,5.4,0.6,8.1,0.9c2.4,0.3,4.2,1.4,5.6,3.4c2.7,3.9,5.5,7.7,8.1,11.6c5,7.5,9.5,15.3,13.1,23.6
		c2.2,5,4,10.1,4.4,15.6c0.4,4.5-0.4,8.7-3.5,12.2c-1.6,1.8-3.6,2.8-5.7,3.9c-4,2.2-8,4.4-12,6.6c-0.9,0.5-1.6,1.1-2.5,1.7
		c-0.7,0.5-0.7,1-0.3,1.7c1.7,3.3,4.1,6.1,6.4,8.9c7.9,9.3,16.4,18.1,24.9,26.7c10.1,10.2,20.3,20.1,31.2,29.5
		c2.7,2.3,5.3,4.6,8.5,6.2c1.5,0.8,1.5,0.9,2.4-0.5c1.7-2.7,3.2-5.4,4.8-8.1c1.6-2.7,3-5.5,4.6-8.3c2.5-4.4,6.5-6.4,11.4-6.7
		c4-0.3,7.9,0.5,11.7,1.8c7.2,2.3,13.9,5.7,20.5,9.5c7.3,4.2,14.2,8.8,21,13.8c2.6,1.9,4.1,4.3,4.5,7.6c1.2,10-0.1,19.4-5,28.3
		c-4.3,7.7-10.7,13.4-18.3,17.7c-10.7,6-22.1,8.7-34.3,8.1c-10.2-0.5-19.9-3-29.3-6.7c-14.2-5.5-27-13.4-39.3-22.3
		c-9.8-7.1-19-14.9-27.8-23.2c-2.2-2.1-4.5-4.1-6.6-6.3c-3.6-3.9-7.1-7.8-10.5-11.8c-9.4-10.8-17.9-22.2-25.2-34.5
		c-7-11.7-12.7-23.9-15.9-37.3c-2.1-8.9-3.1-18-1.7-27.1c2.1-14.3,7.9-26.7,19-36.3c7-6,15.3-9.1,24.5-9.8c1.1-0.1,2.2-0.1,3.3-0.2
		C55.4,34.5,55.5,34.4,55.5,34.4z M20.1,88.6c0,7.6,1.2,14.3,3.1,20.8c3.3,11.3,8.5,21.8,14.7,31.8c8,13,17.4,24.9,27.6,36.2
		c8.8,9.8,18.6,18.6,28.9,26.9c11.4,9.1,23.4,17.3,36.6,23.7c9.4,4.5,19.1,8.1,29.5,9.5c12.1,1.6,23.6-0.3,34.1-6.8
		c11.9-7.2,17.5-17.8,16.3-31.8c-0.1-0.7-0.3-1.2-0.9-1.7c-5-3.3-9.9-6.8-15-10c-6.6-4.1-13.4-7.8-20.7-10.3
		c-2.7-0.9-5.4-1.7-8.2-1.6c-1.1,0-1.8,0.4-2.3,1.4c-2.1,4-4.2,8-6.5,11.9c-1.4,2.4-3,4.8-4.8,6.9c-2.9,3.3-6.6,4.7-11,4
		c-2.9-0.5-5.5-1.8-7.7-3.5c-4.5-3.4-9-6.8-13.2-10.7c-9.5-8.9-18.9-17.8-28.1-27c-8.6-8.5-16.8-17.3-24.6-26.5
		c-3-3.6-5.9-7.2-7.9-11.5c-2.7-5.7-1.8-11,2.9-15.2c1.2-1.1,2.6-2.2,4-3c4.7-2.7,9.4-5.3,14.2-7.9c1.4-0.8,1.9-1.8,1.8-3.2
		c0-0.3,0-0.5-0.1-0.8c-0.4-4.2-1.9-8.1-3.6-12c-4.6-10.3-10.6-19.7-17-29c-1.3-1.8-2.6-2.7-4.8-2.7c-10.4-0.4-19.1,3-25.8,11
		C23.8,66.8,20.2,77.5,20.1,88.6z"/>
	<path d="M131.8,5.9c31.9,0.9,59.4,12.2,82.1,34.8c15.5,15.4,26,33.9,31,55.2c2.4,10.3,3.4,20.7,3,31.3c-0.1,3.6-2.9,6.2-6.4,6.1
		c-3.5-0.1-6.1-2.9-6.1-6.5c0-3.8,0-7.6-0.2-11.3c-1-15.1-5.2-29.4-12.7-42.6C210,51,192.1,35.2,168.7,25.8
		c-9.5-3.8-19.3-6.1-29.5-6.8c-4.6-0.3-9.2-0.3-13.9-0.2c-3.6,0-6.4-2.5-6.6-6c-0.2-3.5,2.2-6.4,5.7-6.6c2.4-0.2,4.9,0,7.3,0
		C131.7,6.1,131.7,6,131.8,5.9z"/>
	<path d="M213.9,120.7c0,1.5,0.1,3,0,4.5c-0.2,3.3-3,5.9-6.3,5.8c-3.5-0.1-6.2-2.8-6.2-6.2c-0.1-3.6,0-7.3-0.4-10.9
		c-1.2-12-5.5-22.9-12.6-32.7c-11.1-15.1-25.6-25-44.1-28.9c-5.6-1.2-11.3-1.5-17-1.3c-2.7,0.1-4.7-1.2-5.8-3.6
		c-1.1-2.4-0.8-4.7,1-6.7c1.2-1.5,2.9-2.1,4.8-2.1c13.6-0.5,26.6,2,38.9,8c22.3,10.9,37.2,28.2,44.5,52
		C212.9,105.7,214,113.5,213.9,120.7z"/>
	<path d="M183,122.6c-0.1,1.3-0.1,2.6-0.3,3.9c-0.6,3.2-3.6,5.2-7.1,4.8c-3-0.3-5.4-3-5.3-6.1c0.2-5.3-0.4-10.6-2.3-15.6
		c-5.2-13.4-14.8-21.7-28.8-24.9c-3-0.7-6.1-0.7-9.2-0.9c-2.9-0.2-5.3-2-6-4.8c-0.7-2.9,0.6-5.9,3.2-7.1c0.9-0.4,2.1-0.7,3.1-0.7
		c15-0.1,27.9,5.1,38.4,15.9c8.5,8.8,13.2,19.4,14.2,31.6c0,0.5,0.1,0.9,0.1,1.4c0,0.8,0,1.7,0,2.5C182.9,122.6,183,122.6,183,122.6
		z"/>
</g>
</svg>
